Patient4_TMGait_0pt3_03_right_16_GRF.mot
version=1
nRows=51
nColumns=19
inDegrees=no
endheader
time	F1x	F1y	F1z	M1x	M1y	M1z	F2x	F2y	F2z	M2x	M2y	M2z	EC1x	EC1y	EC1z	EC2x	EC2y	EC2z
30.27	-14.1748	566.3307	35.6369	-156.0889	-33.2271	483.202	17.9211	149.7883	-18.105	60.5817	5.74	100.0856	-0.0592	0.0182	-0.0073	-0.0462	0.0165	0.9585
30.2889	-14.2603	603.3316	39.5953	-166.4791	-36.321	512.6096	14.7135	133.6753	-15.9135	53.9867	5.3419	89.2914	-0.0592	0.0182	-0.0073	-0.0462	0.0165	0.9585
30.3077	-14.1996	646.952	44.2241	-178.6658	-39.8423	546.7034	11.2033	115.1677	-13.6223	46.449	5.0276	76.911	-0.0592	0.0182	-0.0073	-0.0462	0.0165	0.9585
30.3266	-13.9547	693.8882	49.2877	-191.688	-43.5899	582.8105	7.6141	95.4276	-11.325	38.4432	4.7805	63.7322	-0.0592	0.0182	-0.0073	-0.0462	0.0165	0.9585
30.3454	-13.5096	739.7955	54.4779	-204.2988	-47.3147	617.5228	4.205	75.648	-9.0806	30.449	4.5358	50.5577	-0.0592	0.0182	-0.0073	-0.0462	0.0165	0.9585
30.3643	-12.8124	780.1052	59.4187	-215.2066	-50.7067	647.2951	1.2591	56.9269	-6.9433	22.9028	4.2102	38.1224	-0.0592	0.0182	-0.0073	-0.0462	0.0165	0.9585
30.3831	-11.7835	810.8109	63.7085	-223.3013	-53.4297	669.0447	-0.95286	40.1839	-4.9794	16.1677	3.7317	27.0331	-0.0592	0.0182	-0.0073	-0.0462	0.0165	0.9585
30.402	-10.3673	829.0592	66.994	-227.8166	-55.1924	680.6187	-2.2517	26.1079	-3.2717	10.5141	3.0749	17.7327	-0.0592	0.0182	-0.0073	-0.0462	0.0165	0.9585
30.4209	-8.5689	833.592	69.0394	-228.4447	-55.8141	681.132	-2.6761	15.1117	-1.9025	6.1031	2.3035	10.4813	-0.0592	0.0182	-0.0073	-0.0462	0.0165	0.9585
30.4397	-6.4614	824.9369	69.7651	-225.3766	-55.2588	671.1028	-2.5338	7.2391	-0.90045	2.9466	1.5544	5.2985	-0.0592	0.0182	-0.0073	-0.0462	0.0165	0.9585
30.4586	-4.1575	805.3392	69.2578	-219.2754	-53.6382	652.3831	-2.112	2.0876	-0.23402	0.87899	0.92101	1.9026	-0.0592	0.0182	-0.0073	-0.0462	0.0165	0.9585
30.4774	-1.7721	778.4269	67.7616	-211.1787	-51.1877	627.8733	-1.6044	-0.97757	0.16281	-0.35815	0.44071	-0.15295	-0.0592	0.0182	-0.0073	-0.0462	0.0165	0.9585
30.4963	0.58723	748.5378	65.6342	-202.3081	-48.2328	600.9926	-1.1262	-2.6283	0.36618	-1.0375	0.10998	-1.3347	-0.0592	0.0182	-0.0073	-0.0462	0.0165	0.9585
30.5151	2.8361	719.9618	63.2625	-193.8627	-45.1166	575.0794	-0.73294	-3.4583	0.44459	-1.4002	-0.099279	-2.0471	-0.0592	0.0182	-0.0073	-0.0462	0.0165	0.9585
30.534	4.9427	696.3265	60.9652	-186.8588	-42.1143	552.9138	-0.43734	-3.9267	0.44875	-1.6302	-0.21916	-2.5933	-0.0592	0.0182	-0.0073	-0.0462	0.0165	0.9585
30.5529	6.9472	680.196	58.9373	-182.0225	-39.3863	536.4099	-0.22462	-4.3179	0.41462	-1.8398	-0.27975	-3.1482	-0.0592	0.0182	-0.0073	-0.0462	0.0165	0.9585
30.5717	8.9706	672.8805	57.2621	-179.738	-36.9819	526.4754	-0.064022	-4.7227	0.3629	-2.0605	-0.30391	-3.7464	-0.0592	0.0182	-0.0073	-0.0462	0.0165	0.9585
30.5906	11.1943	674.419	55.9662	-180.0401	-34.8796	523.0296	0.084322	-5.0302	0.29763	-2.2378	-0.30916	-4.2616	-0.0592	0.0182	-0.0073	-0.0462	0.0165	0.9585
30.6094	13.8067	683.6838	55.0619	-182.644	-33.0335	525.1273	0.26861	-4.9095	0.20971	-2.2211	-0.3066	-4.3805	-0.0592	0.0182	-0.0073	-0.0462	0.0165	0.9585
30.6283	16.9591	698.6264	54.5655	-187.012	-31.4033	531.1818	0.54095	-3.7982	0.083768	-1.7603	-0.29967	-3.5878	-0.0592	0.0182	-0.0073	-0.0462	0.0165	0.9585
30.6471	20.722	716.6437	54.4911	-192.4526	-29.9652	539.2772	0.94718	-0.91059	-0.1021	-0.50672	-0.28259	-1.1623	-0.0592	0.0182	-0.0073	-0.0462	0.0165	0.9585
30.666	25.0367	734.9275	54.8388	-198.2155	-28.7221	547.4626	1.5171	4.7153	-0.3759	1.9691	-0.24157	3.7844	-0.0592	0.0182	-0.0073	-0.0462	0.0165	0.9585
30.6849	29.6766	750.6503	55.5728	-203.5351	-27.7089	553.8874	2.2452	14.107	-0.76676	6.129	-0.14948	12.2085	-0.0592	0.0182	-0.0073	-0.0462	0.0165	0.9585
30.7037	34.2008	761.0342	56.5871	-207.6353	-26.9906	556.8262	3.0062	28.2042	-1.3046	12.4018	0.073069	25.0058	-0.0592	0.0182	-0.0073	-0.0462	0.0165	0.9585
30.7226	37.9474	763.4371	57.668	-209.7297	-26.6405	554.6801	3.4036	47.6159	-2.0183	21.0753	0.6217	42.7867	-0.0592	0.0182	-0.0073	-0.0462	0.0165	0.9585
30.7414	40.1894	755.4855	58.4635	-209.018	-26.67	545.9524	2.7534	72.2145	-2.8983	32.1154	1.7812	65.4974	-0.0592	0.0182	-0.0073	-0.0462	0.0165	0.9585
30.7603	40.4447	735.3744	58.4951	-204.7525	-26.9105	529.3523	0.65058	100.9857	-3.9657	45.0885	3.7473	92.2674	-0.0592	0.0182	-0.0073	-0.0462	0.0165	0.9585
30.7791	38.7969	702.7825	57.336	-196.6009	-27.0006	504.4709	-2.6839	132.4961	-5.276	59.3592	6.4755	121.779	-0.0592	0.0182	-0.0073	-0.0462	0.0165	0.9585
30.798	35.6914	659.6588	54.9293	-185.0268	-26.7233	472.4858	-6.7959	165.8422	-6.8609	74.5142	9.7979	153.1268	-0.0592	0.0182	-0.0073	-0.0462	0.0165	0.9585
30.8169	31.5932	609.6696	51.5223	-171.1659	-26.094	435.8786	-11.247	201.0282	-8.7241	90.5357	13.528	186.1956	-0.0592	0.0182	-0.0073	-0.0462	0.0165	0.9585
30.8357	26.9309	556.7031	47.4487	-156.2995	-25.2079	397.3787	-15.6332	238.235	-10.8789	107.4803	17.5	221.0031	-0.0592	0.0182	-0.0073	-0.0462	0.0165	0.9585
30.8546	22.1094	503.7721	42.958	-141.4364	-24.0991	359.1144	-19.6017	277.3101	-13.4026	125.2472	21.6218	257.244	-0.0592	0.0182	-0.0073	-0.0462	0.0165	0.9585
30.8734	17.4636	452.7588	38.2221	-127.2033	-22.761	322.4084	-22.8579	317.653	-16.3705	143.5311	25.8192	294.2174	-0.0592	0.0182	-0.0073	-0.0462	0.0165	0.9585
30.8923	13.2006	404.5665	33.4131	-113.8874	-21.2274	287.8883	-25.1774	358.3174	-19.7804	161.8793	29.9788	330.9475	-0.0592	0.0182	-0.0073	-0.0462	0.0165	0.9585
30.9111	9.3877	359.3924	28.7233	-101.5225	-19.5971	255.6775	-26.4466	398.1926	-23.5259	179.78	33.9424	366.361	-0.0592	0.0182	-0.0073	-0.0462	0.0165	0.9585
30.93	5.9956	317.0669	24.331	-90.0126	-17.9963	225.631	-26.6818	436.264	-27.4381	196.7799	37.5499	399.522	-0.0592	0.0182	-0.0073	-0.0462	0.0165	0.9585
30.9489	2.9514	277.3702	20.3623	-79.2527	-16.5313	197.5675	-26.0078	471.8973	-31.3578	212.6044	40.6975	429.8691	-0.0592	0.0182	-0.0073	-0.0462	0.0165	0.9585
30.9677	0.17005	240.2095	16.8838	-69.1956	-15.2724	171.4006	-24.617	504.9566	-35.1624	227.2072	43.3511	457.3145	-0.0592	0.0182	-0.0073	-0.0462	0.0165	0.9585
30.9866	-2.4273	205.6338	13.9207	-59.8485	-14.2618	147.1396	-22.7418	535.7487	-38.7684	240.7412	45.5382	482.1928	-0.0592	0.0182	-0.0073	-0.0462	0.0165	0.9585
31.0054	-4.9019	173.727	11.4718	-51.2213	-13.5163	124.8135	-20.6567	564.8592	-42.1416	253.4791	47.3546	505.1063	-0.0592	0.0182	-0.0073	-0.0462	0.0165	0.9585
31.0243	-7.2825	144.4757	9.5068	-43.2741	-13.0171	104.3692	-18.6526	592.9481	-45.3032	265.7143	48.9598	526.731	-0.0592	0.0182	-0.0073	-0.0462	0.0165	0.9585
31.0431	-9.5443	117.7148	7.9621	-35.9002	-12.7002	85.6349	-17.0019	620.4908	-48.3013	277.6459	50.5338	547.5857	-0.0592	0.0182	-0.0073	-0.0462	0.0165	0.9585
31.062	-11.6035	93.1909	6.7417	-28.9607	-12.4593	68.3865	-15.9435	647.5136	-51.1641	289.2687	52.2275	567.7967	-0.0592	0.0182	-0.0073	-0.0462	0.0165	0.9585
31.0809	-13.3212	70.726	5.7373	-22.3583	-12.1616	52.4829	-15.6586	673.4633	-53.8748	300.3273	54.1299	586.9786	-0.0592	0.0182	-0.0073	-0.0462	0.0165	0.9585
31.0997	-14.497	50.3344	4.8453	-16.0892	-11.6634	37.9428	-16.2253	697.3351	-56.3771	310.3804	56.2458	604.3287	-0.0592	0.0182	-0.0073	-0.0462	0.0165	0.9585
31.1186	-14.8992	32.2563	3.9917	-10.2582	-10.8392	24.9618	-17.5991	717.9803	-58.5796	318.9412	58.4883	618.8865	-0.0592	0.0182	-0.0073	-0.0462	0.0165	0.9585
31.1374	-14.3487	16.8742	3.1471	-5.0537	-9.6299	13.8437	-19.603	734.4808	-60.3499	325.6449	60.6753	629.8587	-0.0592	0.0182	-0.0073	-0.0462	0.0165	0.9585
31.1563	-12.855	4.5557	2.3196	-0.68986	-8.0764	4.8777	-21.9227	746.5095	-61.5364	330.4042	62.5385	636.9288	-0.0592	0.0182	-0.0073	-0.0462	0.0165	0.9585
31.1751	-10.6913	-4.4884	1.5442	2.6528	-6.3293	-1.7616	-24.1494	754.5561	-62.0133	333.4989	63.7809	640.4499	-0.0592	0.0182	-0.0073	-0.0462	0.0165	0.9585
31.194	-8.2794	-10.2603	0.85998	4.8632	-4.5973	-6.0594	-25.8649	759.9548	-61.7265	335.5772	64.1523	641.4738	-0.0592	0.0182	-0.0073	-0.0462	0.0165	0.9585
31.2129	-6.011	-12.9396	0.30971	5.9071	-3.0787	-8.1389	-26.7554	764.6547	-60.7201	337.5418	63.5271	641.5684	-0.0592	0.0182	-0.0073	-0.0462	0.0165	0.9585
